<svg xmlns="http://www.w3.org/2000/svg" viewBox="0 0 1280 800" width="1280" height="800" font-family="Inter, Segoe UI, Arial, sans-serif"><rect width="1280" height="800" fill="#f4f4f4"/><rect x="0" y="0" width="240" height="800" rx="0" fill="#fff" stroke="#d9d9d9" stroke-width="1.5"/><rect x="20" y="22" width="36" height="36" rx="8" fill="#5a5a5a" stroke="none" stroke-width="1.5"/><text x="38" y="46" font-size="16" fill="#fff" font-weight="bold" text-anchor="middle">G</text><text x="68" y="38" font-size="14" fill="#2b2b2b" font-weight="bold" text-anchor="start">Gestão de Documentos</text><text x="68" y="56" font-size="11" fill="#8a8a8a" font-weight="normal" text-anchor="start">Wireframe · MVP</text><rect x="12" y="92" width="216" height="38" rx="6" fill="#f4f4f4" stroke="none" stroke-width="1.5"/><rect x="12" y="92" width="4" height="38" rx="2" fill="#5a5a5a" stroke="none" stroke-width="1.5"/><rect x="28" y="102" width="18" height="18" rx="4" fill="none" stroke="#8a8a8a" stroke-width="1.5"/><text x="58" y="116" font-size="14" fill="#2b2b2b" font-weight="bold" text-anchor="start">Painel</text><rect x="28" y="148" width="18" height="18" rx="4" fill="none" stroke="#8a8a8a" stroke-width="1.5"/><text x="58" y="162" font-size="14" fill="#8a8a8a" font-weight="normal" text-anchor="start">Enviar arquivos</text><rect x="28" y="194" width="18" height="18" rx="4" fill="none" stroke="#8a8a8a" stroke-width="1.5"/><text x="58" y="208" font-size="14" fill="#8a8a8a" font-weight="normal" text-anchor="start">Lotes enviados</text><rect x="28" y="240" width="18" height="18" rx="4" fill="none" stroke="#8a8a8a" stroke-width="1.5"/><text x="58" y="254" font-size="14" fill="#8a8a8a" font-weight="normal" text-anchor="start">Clientes</text><rect x="28" y="286" width="18" height="18" rx="4" fill="none" stroke="#8a8a8a" stroke-width="1.5"/><text x="58" y="300" font-size="14" fill="#8a8a8a" font-weight="normal" text-anchor="start">Documentos</text><rect x="28" y="332" width="18" height="18" rx="4" fill="none" stroke="#8a8a8a" stroke-width="1.5"/><text x="58" y="346" font-size="14" fill="#8a8a8a" font-weight="normal" text-anchor="start">Exportar e organizar</text><text x="20" y="776" font-size="11" fill="#8a8a8a" font-weight="normal" text-anchor="start">Dados fictícios</text><text x="272" y="56" font-size="26" fill="#2b2b2b" font-weight="bold" text-anchor="start">Painel</text><text x="272" y="82" font-size="14" fill="#8a8a8a" font-weight="normal" text-anchor="start">Visão geral da documentação dos clientes</text><rect x="272" y="104" width="976" height="160" rx="6" fill="#fff" stroke="#d9d9d9" stroke-width="1.5"/><text x="296" y="134" font-size="13" fill="#8a8a8a" font-weight="normal" text-anchor="start">Clientes completos (NF + Planilha + Prestação)</text><text x="296" y="186" font-size="44" fill="#2b2b2b" font-weight="bold" text-anchor="start">84</text><text x="358" y="186" font-size="18" fill="#8a8a8a" font-weight="normal" text-anchor="start">de 120</text><text x="296" y="212" font-size="13" fill="#8a8a8a" font-weight="normal" text-anchor="start">70% prontos para o PDF mesclado</text><rect x="296" y="224" width="928" height="10" rx="5.0" fill="#d9d9d9" stroke="none" stroke-width="1.5"/><rect x="296" y="224" width="649.5999999999999" height="10" rx="5.0" fill="#5a5a5a" stroke="none" stroke-width="1.5"/><rect x="868" y="120" width="248" height="36" rx="6" fill="#5a5a5a" stroke="#5a5a5a" stroke-width="1.5"/><text x="992.0" y="143" font-size="13" fill="#fff" font-weight="bold" text-anchor="middle">Organizar pastas e exportar</text><rect x="1098" y="120" width="152" height="36" rx="6" fill="#fff" stroke="#5a5a5a" stroke-width="1.5"/><text x="1174.0" y="143" font-size="13" fill="#5a5a5a" font-weight="bold" text-anchor="middle">Enviar arquivos</text><rect x="272.0" y="280" width="232.0" height="96" rx="6" fill="#fff" stroke="#d9d9d9" stroke-width="1.5"/><text x="292.0" y="306" font-size="13" fill="#8a8a8a" font-weight="normal" text-anchor="start">Clientes</text><text x="292.0" y="344" font-size="26" fill="#2b2b2b" font-weight="bold" text-anchor="start">120</text><text x="292.0" y="366" font-size="11" fill="#8a8a8a" font-weight="normal" text-anchor="start"></text><rect x="520.0" y="280" width="232.0" height="96" rx="6" fill="#fff" stroke="#d9d9d9" stroke-width="1.5"/><text x="540.0" y="306" font-size="13" fill="#8a8a8a" font-weight="normal" text-anchor="start">Com documentos faltantes</text><text x="540.0" y="344" font-size="26" fill="#2b2b2b" font-weight="bold" text-anchor="start">36</text><text x="540.0" y="366" font-size="11" fill="#8a8a8a" font-weight="normal" text-anchor="start">o que buscar com o cliente</text><rect x="768.0" y="280" width="232.0" height="96" rx="6" fill="#fff" stroke="#d9d9d9" stroke-width="1.5"/><text x="788.0" y="306" font-size="13" fill="#8a8a8a" font-weight="normal" text-anchor="start">Documentos a verificar</text><text x="788.0" y="344" font-size="26" fill="#2b2b2b" font-weight="bold" text-anchor="start">15</text><text x="788.0" y="366" font-size="11" fill="#8a8a8a" font-weight="normal" text-anchor="start">campos não identificados</text><rect x="1016.0" y="280" width="232.0" height="96" rx="6" fill="#fff" stroke="#d9d9d9" stroke-width="1.5"/><text x="1036.0" y="306" font-size="13" fill="#8a8a8a" font-weight="normal" text-anchor="start">Documentos sem cliente</text><text x="1036.0" y="344" font-size="26" fill="#2b2b2b" font-weight="bold" text-anchor="start">0</text><text x="1036.0" y="366" font-size="11" fill="#8a8a8a" font-weight="normal" text-anchor="start">todos atribuídos</text><rect x="272" y="392" width="480.0" height="200" rx="6" fill="#fff" stroke="#d9d9d9" stroke-width="1.5"/><text x="292" y="422" font-size="15" fill="#2b2b2b" font-weight="bold" text-anchor="start">Clientes sem cada tipo de documento</text><text x="292" y="456" font-size="13" fill="#8a8a8a" font-weight="normal" text-anchor="start">Nota fiscal</text><rect x="292" y="466" width="440.0" height="14" rx="7.0" fill="#d9d9d9" stroke="none" stroke-width="1.5"/><rect x="292" y="466" width="90" height="14" rx="7.0" fill="#5a5a5a" stroke="none" stroke-width="1.5"/><text x="292" y="500" font-size="13" fill="#8a8a8a" font-weight="normal" text-anchor="start">Planilha</text><rect x="292" y="510" width="440.0" height="14" rx="7.0" fill="#d9d9d9" stroke="none" stroke-width="1.5"/><rect x="292" y="510" width="220" height="14" rx="7.0" fill="#5a5a5a" stroke="none" stroke-width="1.5"/><text x="292" y="544" font-size="13" fill="#8a8a8a" font-weight="normal" text-anchor="start">Prestação de contas</text><rect x="292" y="554" width="440.0" height="14" rx="7.0" fill="#d9d9d9" stroke="none" stroke-width="1.5"/><rect x="292" y="554" width="170" height="14" rx="7.0" fill="#5a5a5a" stroke="none" stroke-width="1.5"/><rect x="768.0" y="392" width="480.0" height="200" rx="6" fill="#fff" stroke="#d9d9d9" stroke-width="1.5"/><text x="788.0" y="422" font-size="15" fill="#2b2b2b" font-weight="bold" text-anchor="start">Planilhas por situação</text><rect x="808.0" y="446" width="50" height="110" rx="4" fill="#d9d9d9" stroke="none" stroke-width="1.5"/><text x="833.0" y="576" font-size="11" fill="#8a8a8a" font-weight="normal" text-anchor="middle">Situação A</text><rect x="908.0" y="486" width="50" height="70" rx="4" fill="#d9d9d9" stroke="none" stroke-width="1.5"/><text x="933.0" y="576" font-size="11" fill="#8a8a8a" font-weight="normal" text-anchor="middle">Situação B</text><rect x="1008.0" y="516" width="50" height="40" rx="4" fill="#d9d9d9" stroke="none" stroke-width="1.5"/><text x="1033.0" y="576" font-size="11" fill="#8a8a8a" font-weight="normal" text-anchor="middle">Situação C</text><rect x="1108.0" y="536" width="50" height="20" rx="4" fill="#d9d9d9" stroke="none" stroke-width="1.5"/><text x="1133.0" y="576" font-size="11" fill="#8a8a8a" font-weight="normal" text-anchor="middle">Situação D</text><text x="272" y="628" font-size="16" fill="#2b2b2b" font-weight="bold" text-anchor="start">Clientes com documentos faltantes</text><rect x="272" y="642" width="976" height="120" rx="6" fill="#fff" stroke="#d9d9d9" stroke-width="1.5"/><rect x="272" y="642" width="976" height="40" rx="6" fill="#f4f4f4" stroke="#d9d9d9" stroke-width="1.5"/><text x="288" y="667" font-size="12" fill="#8a8a8a" font-weight="bold" text-anchor="start">Cliente</text><text x="668" y="667" font-size="12" fill="#8a8a8a" font-weight="bold" text-anchor="start">Nota fiscal</text><text x="868" y="667" font-size="12" fill="#8a8a8a" font-weight="bold" text-anchor="start">Planilha</text><text x="1068" y="667" font-size="12" fill="#8a8a8a" font-weight="bold" text-anchor="start">Prestação</text><text x="288" y="707" font-size="13" fill="#2b2b2b" font-weight="normal" text-anchor="start">Cliente Exemplo 014</text><rect x="668" y="692" width="34" height="22" rx="11" fill="#f4f4f4" stroke="#8a8a8a" stroke-width="1.5"/><text x="685.0" y="707" font-size="11" fill="#2b2b2b" font-weight="normal" text-anchor="middle">ok</text><rect x="868" y="692" width="55" height="22" rx="11" fill="#f4f4f4" stroke="#8a8a8a" stroke-width="1.5"/><text x="895.5" y="707" font-size="11" fill="#2b2b2b" font-weight="normal" text-anchor="middle">falta</text><rect x="1068" y="692" width="34" height="22" rx="11" fill="#f4f4f4" stroke="#8a8a8a" stroke-width="1.5"/><text x="1085.0" y="707" font-size="11" fill="#2b2b2b" font-weight="normal" text-anchor="middle">ok</text><line x1="272" y1="722" x2="1248" y2="722" stroke="#d9d9d9"/><text x="288" y="747" font-size="13" fill="#2b2b2b" font-weight="normal" text-anchor="start">Cliente Exemplo 027</text><rect x="668" y="732" width="55" height="22" rx="11" fill="#f4f4f4" stroke="#8a8a8a" stroke-width="1.5"/><text x="695.5" y="747" font-size="11" fill="#2b2b2b" font-weight="normal" text-anchor="middle">falta</text><rect x="868" y="732" width="34" height="22" rx="11" fill="#f4f4f4" stroke="#8a8a8a" stroke-width="1.5"/><text x="885.0" y="747" font-size="11" fill="#2b2b2b" font-weight="normal" text-anchor="middle">ok</text><rect x="1068" y="732" width="34" height="22" rx="11" fill="#f4f4f4" stroke="#8a8a8a" stroke-width="1.5"/><text x="1085.0" y="747" font-size="11" fill="#2b2b2b" font-weight="normal" text-anchor="middle">ok</text></svg>