<svg xmlns="http://www.w3.org/2000/svg" viewBox="0 0 1280 800" width="1280" height="800" font-family="Inter, Segoe UI, Arial, sans-serif"><rect width="1280" height="800" fill="#f4f4f4"/><rect x="0" y="0" width="240" height="800" rx="0" fill="#fff" stroke="#d9d9d9" stroke-width="1.5"/><rect x="20" y="22" width="36" height="36" rx="8" fill="#5a5a5a" stroke="none" stroke-width="1.5"/><text x="38" y="46" font-size="16" fill="#fff" font-weight="bold" text-anchor="middle">G</text><text x="68" y="38" font-size="14" fill="#2b2b2b" font-weight="bold" text-anchor="start">Gestão de Documentos</text><text x="68" y="56" font-size="11" fill="#8a8a8a" font-weight="normal" text-anchor="start">Wireframe · MVP</text><rect x="28" y="102" width="18" height="18" rx="4" fill="none" stroke="#8a8a8a" stroke-width="1.5"/><text x="58" y="116" font-size="14" fill="#8a8a8a" font-weight="normal" text-anchor="start">Painel</text><rect x="28" y="148" width="18" height="18" rx="4" fill="none" stroke="#8a8a8a" stroke-width="1.5"/><text x="58" y="162" font-size="14" fill="#8a8a8a" font-weight="normal" text-anchor="start">Enviar arquivos</text><rect x="12" y="184" width="216" height="38" rx="6" fill="#f4f4f4" stroke="none" stroke-width="1.5"/><rect x="12" y="184" width="4" height="38" rx="2" fill="#5a5a5a" stroke="none" stroke-width="1.5"/><rect x="28" y="194" width="18" height="18" rx="4" fill="none" stroke="#8a8a8a" stroke-width="1.5"/><text x="58" y="208" font-size="14" fill="#2b2b2b" font-weight="bold" text-anchor="start">Lotes enviados</text><rect x="28" y="240" width="18" height="18" rx="4" fill="none" stroke="#8a8a8a" stroke-width="1.5"/><text x="58" y="254" font-size="14" fill="#8a8a8a" font-weight="normal" text-anchor="start">Clientes</text><rect x="28" y="286" width="18" height="18" rx="4" fill="none" stroke="#8a8a8a" stroke-width="1.5"/><text x="58" y="300" font-size="14" fill="#8a8a8a" font-weight="normal" text-anchor="start">Documentos</text><rect x="28" y="332" width="18" height="18" rx="4" fill="none" stroke="#8a8a8a" stroke-width="1.5"/><text x="58" y="346" font-size="14" fill="#8a8a8a" font-weight="normal" text-anchor="start">Exportar e organizar</text><text x="20" y="776" font-size="11" fill="#8a8a8a" font-weight="normal" text-anchor="start">Dados fictícios</text><text x="272" y="56" font-size="26" fill="#2b2b2b" font-weight="bold" text-anchor="start">Lote 12</text><text x="272" y="82" font-size="14" fill="#8a8a8a" font-weight="normal" text-anchor="start">Compare o lote com o banco e revise antes de importar</text><rect x="272" y="106" width="156" height="54" rx="6" fill="#fff" stroke="#d9d9d9" stroke-width="1.5"/><text x="288" y="128" font-size="12" fill="#8a8a8a" font-weight="normal" text-anchor="start">Novos</text><text x="288" y="150" font-size="20" fill="#2b2b2b" font-weight="bold" text-anchor="start">12</text><rect x="442" y="106" width="156" height="54" rx="6" fill="#fff" stroke="#d9d9d9" stroke-width="1.5"/><text x="458" y="128" font-size="12" fill="#8a8a8a" font-weight="normal" text-anchor="start">Iguais</text><text x="458" y="150" font-size="20" fill="#2b2b2b" font-weight="bold" text-anchor="start">30</text><rect x="612" y="106" width="156" height="54" rx="6" fill="#fff" stroke="#d9d9d9" stroke-width="1.5"/><text x="628" y="128" font-size="12" fill="#8a8a8a" font-weight="normal" text-anchor="start">Alterados</text><text x="628" y="150" font-size="20" fill="#2b2b2b" font-weight="bold" text-anchor="start">4</text><rect x="782" y="106" width="156" height="54" rx="6" fill="#fff" stroke="#d9d9d9" stroke-width="1.5"/><text x="798" y="128" font-size="12" fill="#8a8a8a" font-weight="normal" text-anchor="start">Conflitos</text><text x="798" y="150" font-size="20" fill="#2b2b2b" font-weight="bold" text-anchor="start">2</text><rect x="272" y="180" width="976" height="200" rx="6" fill="#fff" stroke="#d9d9d9" stroke-width="1.5"/><rect x="272" y="180" width="976" height="40" rx="6" fill="#f4f4f4" stroke="#d9d9d9" stroke-width="1.5"/><text x="288" y="205" font-size="12" fill="#8a8a8a" font-weight="bold" text-anchor="start">Importar</text><text x="378" y="205" font-size="12" fill="#8a8a8a" font-weight="bold" text-anchor="start">Documento</text><text x="638" y="205" font-size="12" fill="#8a8a8a" font-weight="bold" text-anchor="start">Cliente</text><text x="868" y="205" font-size="12" fill="#8a8a8a" font-weight="bold" text-anchor="start">Resultado</text><text x="1038" y="205" font-size="12" fill="#8a8a8a" font-weight="bold" text-anchor="start">Diferença</text><text x="288" y="245" font-size="13" fill="#2b2b2b" font-weight="normal" text-anchor="start">sim</text><text x="378" y="245" font-size="13" fill="#2b2b2b" font-weight="normal" text-anchor="start">nf_exemplo_101.pdf</text><text x="638" y="245" font-size="13" fill="#2b2b2b" font-weight="normal" text-anchor="start">Cliente Exemplo 108</text><rect x="868" y="230" width="48" height="22" rx="11" fill="#f4f4f4" stroke="#8a8a8a" stroke-width="1.5"/><text x="892.0" y="245" font-size="11" fill="#2b2b2b" font-weight="normal" text-anchor="middle">NOVO</text><text x="1038" y="245" font-size="13" fill="#2b2b2b" font-weight="normal" text-anchor="start">—</text><line x1="272" y1="260" x2="1248" y2="260" stroke="#d9d9d9"/><text x="288" y="285" font-size="13" fill="#2b2b2b" font-weight="normal" text-anchor="start">sim</text><text x="378" y="285" font-size="13" fill="#2b2b2b" font-weight="normal" text-anchor="start">planilha_exemplo_102.pdf</text><text x="638" y="285" font-size="13" fill="#2b2b2b" font-weight="normal" text-anchor="start">Cliente Exemplo 014</text><rect x="868" y="270" width="76" height="22" rx="11" fill="#f4f4f4" stroke="#8a8a8a" stroke-width="1.5"/><text x="906.0" y="285" font-size="11" fill="#2b2b2b" font-weight="normal" text-anchor="middle">ALTERADO</text><text x="1038" y="285" font-size="13" fill="#2b2b2b" font-weight="normal" text-anchor="start">situação: A → B</text><line x1="272" y1="300" x2="1248" y2="300" stroke="#d9d9d9"/><text x="288" y="325" font-size="13" fill="#2b2b2b" font-weight="normal" text-anchor="start">não</text><text x="378" y="325" font-size="13" fill="#2b2b2b" font-weight="normal" text-anchor="start">prestacao_exemplo_103.pdf</text><text x="638" y="325" font-size="13" fill="#2b2b2b" font-weight="normal" text-anchor="start">Cliente Exemplo 031</text><rect x="868" y="310" width="76" height="22" rx="11" fill="#f4f4f4" stroke="#8a8a8a" stroke-width="1.5"/><text x="906.0" y="325" font-size="11" fill="#2b2b2b" font-weight="normal" text-anchor="middle">CONFLITO</text><text x="1038" y="325" font-size="13" fill="#2b2b2b" font-weight="normal" text-anchor="start">campo editado à mão</text><line x1="272" y1="340" x2="1248" y2="340" stroke="#d9d9d9"/><text x="288" y="365" font-size="13" fill="#2b2b2b" font-weight="normal" text-anchor="start">não</text><text x="378" y="365" font-size="13" fill="#2b2b2b" font-weight="normal" text-anchor="start">nf_exemplo_104.pdf</text><text x="638" y="365" font-size="13" fill="#2b2b2b" font-weight="normal" text-anchor="start">Cliente Exemplo 042</text><rect x="868" y="350" width="55" height="22" rx="11" fill="#f4f4f4" stroke="#8a8a8a" stroke-width="1.5"/><text x="895.5" y="365" font-size="11" fill="#2b2b2b" font-weight="normal" text-anchor="middle">IGUAL</text><text x="1038" y="365" font-size="13" fill="#2b2b2b" font-weight="normal" text-anchor="start">—</text><text x="272" y="420" font-size="16" fill="#2b2b2b" font-weight="bold" text-anchor="start">Verificações</text><rect x="272.0" y="436" width="314.6666666666667" height="200" rx="6" fill="#fff" stroke="#d9d9d9" stroke-width="1.5"/><text x="288.0" y="464" font-size="13" fill="#2b2b2b" font-weight="bold" text-anchor="start">Mesmo cliente, grafias diferentes</text><text x="288.0" y="500" font-size="13" fill="#8a8a8a" font-weight="normal" text-anchor="start">Cliente Exemplo Silva</text><text x="288.0" y="524" font-size="13" fill="#8a8a8a" font-weight="normal" text-anchor="start">Cliente Exmplo Silva</text><rect x="288.0" y="580" width="120" height="36" rx="6" fill="#fff" stroke="#5a5a5a" stroke-width="1.5"/><text x="348.0" y="603" font-size="13" fill="#5a5a5a" font-weight="bold" text-anchor="middle">Unir fichas</text><rect x="602.6666666666667" y="436" width="314.6666666666667" height="200" rx="6" fill="#fff" stroke="#d9d9d9" stroke-width="1.5"/><text x="618.6666666666667" y="464" font-size="13" fill="#2b2b2b" font-weight="bold" text-anchor="start">Nomes ajustados pelo OCR</text><text x="618.6666666666667" y="500" font-size="13" fill="#8a8a8a" font-weight="normal" text-anchor="start">"Cl1ente Exemplo 07"</text><text x="618.6666666666667" y="524" font-size="13" fill="#8a8a8a" font-weight="normal" text-anchor="start">→ "Cliente Exemplo 07"</text><rect x="618.6666666666667" y="580" width="96" height="36" rx="6" fill="#fff" stroke="#5a5a5a" stroke-width="1.5"/><text x="666.6666666666667" y="603" font-size="13" fill="#5a5a5a" font-weight="bold" text-anchor="middle">Conferir</text><rect x="933.3333333333334" y="436" width="314.6666666666667" height="200" rx="6" fill="#fff" stroke="#d9d9d9" stroke-width="1.5"/><text x="949.3333333333334" y="464" font-size="13" fill="#2b2b2b" font-weight="bold" text-anchor="start">Sem cliente identificado</text><text x="949.3333333333334" y="500" font-size="13" fill="#8a8a8a" font-weight="normal" text-anchor="start">nf_exemplo_109.pdf</text><rect x="949.3333333333334" y="580" width="160" height="36" rx="6" fill="#fff" stroke="#5a5a5a" stroke-width="1.5"/><text x="1029.3333333333335" y="603" font-size="13" fill="#5a5a5a" font-weight="bold" text-anchor="middle">Escolher cliente</text><rect x="272" y="680" width="224" height="36" rx="6" fill="#5a5a5a" stroke="#5a5a5a" stroke-width="1.5"/><text x="384.0" y="703" font-size="13" fill="#fff" font-weight="bold" text-anchor="middle">Importar 16 selecionados</text><text x="522" y="703" font-size="13" fill="#8a8a8a" font-weight="normal" text-anchor="start">Salvo automaticamente.</text></svg>